<svg width="120" height="120" viewBox="0 0 120 120" fill="none" xmlns="http://www.w3.org/2000/svg">
<g clip-path="url(#clip0_9_200)">
<path d="M29.4151 93.265C27.9151 92.265 26.6251 90.99 25.1151 89.185C24.3314 88.2257 23.5547 87.2607 22.7851 86.29C20.4701 83.415 19.0101 82.09 17.5001 81.545C16.2516 81.0968 15.2323 80.171 14.6664 78.9712C14.1005 77.7714 14.0344 76.396 14.4826 75.1475C14.9309 73.899 15.8567 72.8797 17.0564 72.3138C18.2562 71.7479 19.6316 71.6818 20.8801 72.13C24.6401 73.48 27.1851 75.805 30.6151 80.07C30.1451 79.485 32.3151 82.205 32.7801 82.765C33.7301 83.9 34.4301 84.59 34.9801 84.955C36.0001 85.64 37.9151 85.935 40.7301 85.655C40.8451 83.745 41.2001 81.89 41.7401 80.18C26.9001 76.55 18.5001 66.98 18.5001 48.2C18.5001 42 20.3501 36.42 23.7901 31.74C22.7001 27.27 22.8651 21.865 25.3001 15.78C25.5765 15.0917 26.0025 14.4734 26.5473 13.9701C27.0921 13.4668 27.7421 13.091 28.4501 12.87C28.8551 12.75 29.0851 12.695 29.4901 12.635C33.5051 12.02 39.1751 13.485 46.5651 18.115C50.9691 17.0854 55.4774 16.5686 60.0001 16.575C64.5601 16.575 69.0901 17.095 73.4201 18.115C80.8051 13.45 86.4851 11.985 90.5302 12.635C90.9551 12.7 91.3151 12.785 91.6201 12.885C92.3143 13.1139 92.9498 13.4922 93.4819 13.9932C94.0141 14.4943 94.4299 15.1059 94.7001 15.785C97.1351 21.865 97.3001 27.27 96.2101 31.735C99.6651 36.415 101.5 41.96 101.5 48.2C101.5 66.985 93.1301 76.525 78.2901 80.16C78.9151 82.235 79.2401 84.555 79.2401 87.06C79.2406 91.5867 79.2206 96.1134 79.1801 100.64C80.303 100.885 81.3073 101.509 82.0238 102.408C82.7403 103.306 83.1254 104.424 83.1143 105.574C83.1031 106.723 82.6964 107.833 81.9625 108.718C81.2287 109.602 80.2126 110.207 79.0851 110.43C73.3901 111.57 69.1701 107.77 69.1701 102.805L69.1801 100.575L69.2051 97.05C69.2301 93.51 69.2401 90.36 69.2401 87.06C69.2401 83.575 68.3251 81.3 67.1151 80.26C63.8101 77.41 65.4851 71.985 69.8151 71.5C84.6501 69.835 91.5001 64.09 91.5001 48.2C91.5001 43.425 89.9401 39.48 86.9351 36.18C86.302 35.4862 85.8771 34.6281 85.7091 33.704C85.5411 32.78 85.6368 31.8272 85.9851 30.955C86.8151 28.885 87.1701 26.17 86.4651 22.885L86.4151 22.9C83.9602 23.595 80.8651 25.1 77.1251 27.645C76.5221 28.0543 75.8368 28.3267 75.1173 28.4433C74.3979 28.5599 73.6616 28.5178 72.9601 28.32C68.7397 27.1514 64.3794 26.5643 60.0001 26.575C55.5501 26.575 51.1401 27.17 47.0401 28.325C46.3412 28.5213 45.608 28.563 44.8913 28.4473C44.1746 28.3316 43.4918 28.0612 42.8901 27.655C39.1301 25.12 36.0201 23.62 33.5501 22.92C32.8301 26.185 33.1851 28.89 34.0101 30.955C34.3592 31.8268 34.4557 32.7792 34.2885 33.7033C34.1214 34.6274 33.6974 35.4857 33.0651 36.18C30.0801 39.45 28.5001 43.47 28.5001 48.2C28.5001 64.06 35.3551 69.84 50.1101 71.5C54.4351 71.985 56.1151 77.385 52.8301 80.24C51.8701 81.08 50.6851 83.9 50.6851 87.06V102.81C50.6851 107.74 46.5101 111.435 40.8851 110.45C39.744 110.25 38.7078 109.659 37.9537 108.78C37.1996 107.9 36.7745 106.786 36.7509 105.627C36.7272 104.469 37.1066 103.338 37.8242 102.429C38.5418 101.519 39.5531 100.887 40.6851 100.64V95.69C36.1351 95.995 32.3751 95.25 29.4151 93.265Z" fill="#333333"/>
</g>
<defs>
<clipPath id="clip0_9_200">
<rect width="120" height="120" fill="white"/>
</clipPath>
</defs>
</svg>
