<svg width="120" height="120" viewBox="0 0 120 120" fill="none" xmlns="http://www.w3.org/2000/svg">
<g clip-path="url(#clip0_9_204)">
<path d="M20 15H100C101.326 15 102.598 15.5268 103.536 16.4645C104.473 17.4021 105 18.6739 105 20V100C105 101.326 104.473 102.598 103.536 103.536C102.598 104.473 101.326 105 100 105H20C18.6739 105 17.4021 104.473 16.4645 103.536C15.5268 102.598 15 101.326 15 100V20C15 18.6739 15.5268 17.4021 16.4645 16.4645C17.4021 15.5268 18.6739 15 20 15ZM25 25V95H95V25H25ZM37.5 45C35.5109 45 33.6032 44.2098 32.1967 42.8033C30.7902 41.3968 30 39.4891 30 37.5C30 35.5109 30.7902 33.6032 32.1967 32.1967C33.6032 30.7902 35.5109 30 37.5 30C39.4891 30 41.3968 30.7902 42.8033 32.1967C44.2098 33.6032 45 35.5109 45 37.5C45 39.4891 44.2098 41.3968 42.8033 42.8033C41.3968 44.2098 39.4891 45 37.5 45ZM32.5 50H42.5V87.5H32.5V50ZM60 52.15C62.92 49.325 66.33 47.5 70 47.5C80.355 47.5 87.5 55.895 87.5 66.25V87.5H77.5V66.25C77.5 63.9294 76.5781 61.7038 74.9372 60.0628C73.2962 58.4219 71.0706 57.5 68.75 57.5C66.4294 57.5 64.2038 58.4219 62.5628 60.0628C60.9219 61.7038 60 63.9294 60 66.25V87.5H50V50H60V52.15Z" fill="#333333"/>
</g>
<defs>
<clipPath id="clip0_9_204">
<rect width="120" height="120" fill="white"/>
</clipPath>
</defs>
</svg>
