<svg width="120" height="120" viewBox="0 0 120 120" fill="none" xmlns="http://www.w3.org/2000/svg">
<path d="M111.048 18.2725C111.048 18.2725 120.762 14.485 119.952 23.6832C119.682 27.4708 117.254 40.727 115.365 55.0655L108.89 97.5397C108.89 97.5397 108.35 103.762 103.493 104.844C98.6367 105.926 91.352 101.057 90.0027 99.9745C88.9235 99.163 69.767 86.9887 63.0215 81.037C61.1327 79.4137 58.9743 76.1673 63.2912 72.3798L91.6217 45.3263C94.8595 42.0798 98.0973 34.5047 84.6065 43.703L46.8328 69.404C46.8328 69.404 42.5158 72.1093 34.4215 69.6745L16.8836 64.2637C16.8836 64.2637 10.408 60.2057 21.4704 56.1475C48.4518 43.4322 81.6387 30.4465 111.048 18.2725Z" fill="#333333"/>
</svg>
