<svg width="120" height="120" viewBox="0 0 120 120" fill="none" xmlns="http://www.w3.org/2000/svg">
<g clip-path="url(#clip0_9_184)">
<path d="M60 45C56.0218 45 52.2064 46.5803 49.3934 49.3934C46.5803 52.2064 45 56.0218 45 60C45 63.9782 46.5803 67.7936 49.3934 70.6066C52.2064 73.4197 56.0218 75 60 75C63.9782 75 67.7936 73.4197 70.6066 70.6066C73.4197 67.7936 75 63.9782 75 60C75 56.0218 73.4197 52.2064 70.6066 49.3934C67.7936 46.5803 63.9782 45 60 45ZM60 35C66.6304 35 72.9893 37.6339 77.6777 42.3223C82.3661 47.0107 85 53.3696 85 60C85 66.6304 82.3661 72.9893 77.6777 77.6777C72.9893 82.3661 66.6304 85 60 85C53.3696 85 47.0107 82.3661 42.3223 77.6777C37.6339 72.9893 35 66.6304 35 60C35 53.3696 37.6339 47.0107 42.3223 42.3223C47.0107 37.6339 53.3696 35 60 35ZM92.5 33.75C92.5 35.4076 91.8415 36.9973 90.6694 38.1694C89.4973 39.3415 87.9076 40 86.25 40C84.5924 40 83.0027 39.3415 81.8306 38.1694C80.6585 36.9973 80 35.4076 80 33.75C80 32.0924 80.6585 30.5027 81.8306 29.3306C83.0027 28.1585 84.5924 27.5 86.25 27.5C87.9076 27.5 89.4973 28.1585 90.6694 29.3306C91.8415 30.5027 92.5 32.0924 92.5 33.75ZM60 20C47.63 20 45.61 20.035 39.855 20.29C35.935 20.475 33.305 21 30.865 21.95C28.695 22.79 27.13 23.795 25.465 25.465C23.9 26.977 22.6968 28.8229 21.945 30.865C20.995 33.315 20.47 35.94 20.29 39.855C20.03 45.375 20 47.305 20 60C20 72.37 20.035 74.39 20.29 80.145C20.475 84.06 21 86.695 21.945 89.13C22.795 91.305 23.795 92.87 25.455 94.53C27.14 96.21 28.705 97.215 30.855 98.045C33.325 99 35.955 99.53 39.855 99.71C45.375 99.97 47.305 100 60 100C72.37 100 74.39 99.965 80.145 99.71C84.055 99.525 86.69 99 89.13 98.055C91.295 97.21 92.87 96.205 94.53 94.545C96.215 92.86 97.22 91.295 98.05 89.145C99 86.68 99.53 84.045 99.71 80.145C99.97 74.625 100 72.695 100 60C100 47.63 99.965 45.61 99.71 39.855C99.525 35.945 99 33.305 98.05 30.865C97.2965 28.825 96.0954 26.9798 94.535 25.465C93.0237 23.8992 91.1775 22.6958 89.135 21.945C86.685 20.995 84.055 20.47 80.145 20.29C74.625 20.03 72.695 20 60 20ZM60 10C73.585 10 75.28 10.05 80.61 10.3C85.935 10.55 89.56 11.385 92.75 12.625C96.05 13.895 98.83 15.615 101.61 18.39C104.152 20.8895 106.12 23.9129 107.375 27.25C108.61 30.435 109.45 34.065 109.7 39.39C109.935 44.72 110 46.415 110 60C110 73.585 109.95 75.28 109.7 80.61C109.45 85.935 108.61 89.56 107.375 92.75C106.123 96.0889 104.156 99.1131 101.61 101.61C99.1098 104.152 96.0865 106.119 92.75 107.375C89.565 108.61 85.935 109.45 80.61 109.7C75.28 109.935 73.585 110 60 110C46.415 110 44.72 109.95 39.39 109.7C34.065 109.45 30.44 108.61 27.25 107.375C23.9116 106.122 20.8876 104.155 18.39 101.61C15.847 99.1109 13.8797 96.0873 12.625 92.75C11.385 89.565 10.55 85.935 10.3 80.61C10.065 75.28 10 73.585 10 60C10 46.415 10.05 44.72 10.3 39.39C10.55 34.06 11.385 30.44 12.625 27.25C13.8762 23.9109 15.844 20.8866 18.39 18.39C20.8884 15.8462 23.9121 13.8786 27.25 12.625C30.44 11.385 34.06 10.55 39.39 10.3C44.72 10.065 46.415 10 60 10Z" fill="#333333"/>
</g>
<defs>
<clipPath id="clip0_9_184">
<rect width="120" height="120" fill="white"/>
</clipPath>
</defs>
</svg>
