<svg width="64" height="63" viewBox="0 0 64 63" fill="none" xmlns="http://www.w3.org/2000/svg">
<path d="M33.4742 34.8557L38.0532 37.1788C35.7079 43.1673 35.7787 49.8264 38.2508 55.7642C36.7546 56.1244 35.228 56.3455 33.6907 56.4245C30.143 56.6152 26.5952 56.0504 23.2841 54.7679L33.4742 34.8557V34.8557ZM42.5472 39.4612L53.4696 45C50.9089 48.9598 47.2784 52.1206 42.995 54.1195C41.0922 49.7261 40.8399 44.798 42.2841 40.2348L42.5472 39.4612V39.4612ZM24.4298 30.2687L29.0086 32.5893L18.818 52.4915C14.5158 49.7353 11.1607 45.738 9.20097 41.0334C15.1927 39.6056 20.4446 36.0271 23.9502 30.9836L24.4298 30.2687V30.2687ZM57.0009 26.7549C57.2181 27.8758 57.3588 29.0232 57.4204 30.1922C57.6119 33.7239 57.0446 37.2556 55.7562 40.5517L44.8287 35.0107C47.6084 30.9314 51.808 28.0221 56.6164 26.845L57.0009 26.7549V26.7549ZM9.00588 22.4479L19.9309 27.989C17.0743 32.1806 12.7225 35.1331 7.75887 36.2473C7.54006 35.1108 7.39981 33.9606 7.33911 32.805C7.14687 29.1533 7.75307 25.645 9.00324 22.4455L9.00588 22.4479ZM45.9413 10.5032C50.2436 13.2594 53.5986 17.2567 55.5584 21.9613C49.5657 23.3915 44.3134 26.9716 40.8069 32.0162L40.3298 32.731L35.7508 30.4079L45.9415 10.5057L45.9413 10.5032ZM31.0662 6.57286C34.7345 6.38149 38.2588 6.98494 41.4729 8.22944L31.2828 28.1416L26.7039 25.8211C29.0505 19.8311 28.9796 13.1698 26.5061 7.23067C28.0024 6.87144 29.529 6.65123 31.0662 6.57286V6.57286ZM21.7647 8.8827C23.6651 13.277 23.9156 18.2048 22.4706 22.7677L22.2099 23.5386L11.2874 17.9973C13.7491 14.1922 17.2005 11.1221 21.2747 9.11322L21.7646 8.88021L21.7647 8.8827Z" fill="#333333"/>
</svg>
