<svg width="61" height="60" viewBox="0 0 61 60" fill="none" xmlns="http://www.w3.org/2000/svg">
<path d="M8.83203 46.272C8.83203 36.6582 8.83203 13.8239 8.83203 13.8239C8.83203 9.68843 12.1998 6.33594 16.3542 6.33594H43.9353V38.784C43.9353 38.784 22.9142 38.784 16.3542 38.784C12.217 38.784 8.83203 42.1339 8.83203 46.272Z" stroke="#333333" stroke-width="2" stroke-linejoin="round"/>
<path d="M43.9353 38.7841C43.9353 38.7841 17.8005 38.7841 16.3542 38.7841C12.1998 38.7841 8.83203 42.1366 8.83203 46.2721C8.83203 50.4076 12.1998 53.7601 16.3542 53.7601C19.1237 53.7601 32.4964 53.7601 51.4574 53.7601V8.83203" stroke="#333333" stroke-width="2" stroke-linecap="round" stroke-linejoin="round"/>
<path d="M17.6079 46.272H42.6816" stroke="#333333" stroke-width="2" stroke-linecap="round" stroke-linejoin="round"/>
</svg>
