<svg width="61" height="60" viewBox="0 0 61 60" fill="none" xmlns="http://www.w3.org/2000/svg">
<path d="M30.3576 55.0078C16.5386 54.9925 5.33988 43.8265 5.32471 30.0478C6.31037 30.3254 7.32947 30.4673 8.35369 30.4696C11.7419 30.4944 14.9251 28.8542 16.8649 26.0841C18.5991 23.5871 18.9655 20.3906 17.8412 17.5678C18.5601 17.6957 19.2888 17.7608 20.019 17.7625C23.2655 17.7867 26.3467 16.3373 28.3925 13.8239C30.3945 11.3847 31.1773 8.17095 30.5203 5.08789C44.3456 5.13269 55.5168 16.3439 55.4721 30.1289C55.427 43.9139 44.1829 55.0525 30.3576 55.0078ZM32.2676 46.4414C32.6527 46.6065 33.0676 46.6914 33.4867 46.691C34.7518 46.6898 35.8919 45.9299 36.3765 44.7647C36.8611 43.5996 36.5951 42.2581 35.7022 41.3646C35.1137 40.7803 34.3172 40.4519 33.4867 40.4511C32.0012 40.4545 30.7228 41.4989 30.4274 42.9506C30.1319 44.4022 30.9009 45.8609 32.2676 46.4414ZM17.6409 42.2157C18.1425 42.4226 18.6802 42.5286 19.223 42.5277C20.9166 42.5273 22.442 41.5063 23.0837 39.9435C23.7255 38.3808 23.3563 36.5863 22.1493 35.4017C21.3691 34.6355 20.318 34.2061 19.223 34.2061C16.9199 34.2089 15.0539 36.0705 15.0525 38.3669C15.0529 40.0362 16.0515 41.5444 17.5908 42.2007H17.6034H17.6309L17.6409 42.2157ZM41.2495 35.9583C42.932 36.6628 44.8786 36.1948 46.0542 34.803C47.2298 33.4112 47.3612 31.4189 46.3787 29.8855C46.071 29.4079 45.669 28.9977 45.1972 28.68C43.9013 27.8075 42.225 27.7305 40.8542 28.4806C39.4834 29.2306 38.6482 30.6818 38.6903 32.2403C38.7325 33.7988 39.6449 35.2031 41.0542 35.8784H41.0242L41.0993 35.9109L41.1493 35.9308H41.1343C41.17 35.9423 41.2051 35.9556 41.2394 35.9708L41.2495 35.9583ZM30.3576 25.887C29.3592 25.8853 28.4993 26.5887 28.306 27.5654C28.1126 28.5421 28.6398 29.5186 29.5639 29.8954C30.4881 30.2722 31.5505 29.9439 32.0988 29.1119C32.6472 28.28 32.5281 27.1774 31.8145 26.481C31.6285 26.2984 31.4093 26.1527 31.1687 26.0517L31.1236 26.0317L31.0561 26.0068C30.8319 25.927 30.5956 25.8865 30.3576 25.887ZM39.745 15.4887C38.1432 15.4847 36.7988 16.6911 36.6346 18.2798C36.4704 19.8685 37.5397 21.323 39.1086 21.6449C40.6775 21.9667 42.2359 21.0514 42.7141 19.5271C43.1923 18.0028 42.4348 16.3652 40.9616 15.7383H40.9365C40.5597 15.5778 40.1548 15.493 39.745 15.4887ZM11.5829 23.8078C10.4313 23.8078 9.4977 22.8769 9.4977 21.7286C9.4977 20.5804 10.4313 19.6495 11.5829 19.6495C12.7346 19.6495 13.6682 20.5804 13.6682 21.7286C13.6668 22.8764 12.734 23.8064 11.5829 23.8078ZM8.45382 17.5678C6.72566 17.5678 5.32471 16.171 5.32471 14.4478C5.32471 12.7247 6.72566 11.3279 8.45382 11.3279C10.182 11.3279 11.5829 12.7247 11.5829 14.4478C11.5802 16.1698 10.1808 17.5651 8.45382 17.5678ZM20.9703 13.407C19.2421 13.407 17.8412 12.0102 17.8412 10.287C17.8412 8.56391 19.2421 7.16705 20.9703 7.16705C22.6984 7.16705 24.0994 8.56391 24.0994 10.287C24.0994 12.0106 22.6989 13.4081 20.9703 13.4095V13.407ZM13.6707 9.2487C12.5194 9.2487 11.5859 8.31834 11.5854 7.17038C11.585 6.02241 12.5177 5.09131 13.669 5.09039C14.8203 5.08947 15.7545 6.01909 15.7559 7.16705C15.7559 8.31574 14.8227 9.24733 13.6707 9.2487Z" fill="#333333"/>
</svg>
