<svg width="66" height="66" viewBox="0 0 66 66" fill="none" xmlns="http://www.w3.org/2000/svg">
<path d="M34.1485 7.1412C47.806 8.33067 57.9084 20.3156 56.7135 33.9113C55.5187 47.5069 43.4791 57.5635 29.8215 56.374C16.164 55.1845 6.06157 43.1996 7.25645 29.6039C8.45134 16.0083 20.4909 5.95174 34.1485 7.1412ZM35.2493 41.9638L26.9899 41.2445L23.167 45.617L24.1679 49.9359C26.1031 50.759 28.1576 51.2703 30.2542 51.4507C32.4081 51.6383 34.5131 51.4744 36.5124 51.011L38.2489 46.9305L35.2468 41.9636L35.2493 41.9638ZM15.6461 27.5366L12.2484 29.5649L12.2022 30.0347C11.8279 34.2933 12.8391 38.3526 14.8631 41.7758L19.5862 42.1872L23.2516 37.9919L21.3953 29.9672L15.6461 27.5366ZM48.812 30.4251L42.7261 31.8249L39.4982 39.4069L42.3736 44.1718L47.0967 44.5831C49.7805 41.4588 51.4139 37.5762 51.7678 33.4805L51.8017 33.0097L48.812 30.4251ZM39.3066 13.3774L35.9132 15.4135L35.3687 21.6095L41.6072 27.0071L47.3012 25.6997L49.0396 21.6268C46.7959 17.8865 43.3758 14.987 39.309 13.3776L39.3066 13.3774ZM27.9759 12.3906C23.6899 13.2732 19.8158 15.5383 16.9541 18.8349L17.9558 23.1439L23.3352 25.4157L30.423 21.1787L30.9675 14.9828L27.9784 12.3908L27.9759 12.3906Z" fill="#333333"/>
</svg>
