<svg width="121" height="121" viewBox="0 0 121 121" fill="none" xmlns="http://www.w3.org/2000/svg">
<g clip-path="url(#clip0_11_96)">
<path d="M121.721 0.647461H1.3667V120.456H121.721V0.647461Z" fill="white" fill-opacity="0.01"/>
<path d="M90.6292 38.0875C97.553 38.0875 103.166 32.4999 103.166 25.6075C103.166 18.7149 97.553 13.1274 90.6292 13.1274C83.7053 13.1274 78.0923 18.7149 78.0923 25.6075C78.0923 32.4999 83.7053 38.0875 90.6292 38.0875Z" stroke="#333333" stroke-width="2"/>
<path d="M30.4521 42.5031L50.5189 35.5864L78.0922 48.6869L50.5189 69.1482L78.0922 87.2172L60.5614 110.466" stroke="#333333" stroke-width="2" stroke-linecap="round" stroke-linejoin="round"/>
<path d="M88.9238 54.6695L95.6478 58.3097L110.688 44.2422" stroke="#333333" stroke-width="2" stroke-linecap="round" stroke-linejoin="round"/>
<path d="M42.6103 79.3848L35.1641 89.1486L10.4028 102.974" stroke="#333333" stroke-width="2" stroke-linecap="round" stroke-linejoin="round"/>
</g>
<defs>
<clipPath id="clip0_11_96">
<rect width="120.354" height="119.808" fill="white" transform="translate(0.36377 0.647461)"/>
</clipPath>
</defs>
</svg>
